<svg width="116" height="67" viewBox="0 0 116 67" fill="none" xmlns="http://www.w3.org/2000/svg">
<path d="M10.6 42.6V37.3H18.6V56.35C17.6333 56.6833 16.45 56.9333 15.05 57.1C13.65 57.3 12.3 57.4 11 57.4C8.33333 57.4 6.35 56.9333 5.05 56C3.75 55.0667 2.85 53.3833 2.35 50.95C1.85 48.4833 1.6 44.7667 1.6 39.8C1.6 34.8333 1.86667 31.1333 2.4 28.7C2.93333 26.2333 3.9 24.5333 5.3 23.6C6.7 22.6667 8.8 22.2 11.6 22.2C12.6667 22.2 13.85 22.3 15.15 22.5C16.4833 22.6667 17.6167 22.8833 18.55 23.15V28.2C16.1833 27.8333 14.4167 27.65 13.25 27.65C11.3833 27.65 10.1 27.85 9.4 28.25C8.7 28.65 8.21667 29.65 7.95 31.25C7.68333 32.85 7.55 35.7 7.55 39.8C7.55 43.7 7.61667 46.45 7.75 48.05C7.91667 49.65 8.23333 50.7333 8.7 51.3C9.16667 51.8333 9.98333 52.1 11.15 52.1C11.9833 52.1 12.6667 52.0333 13.2 51.9V42.6H10.6ZM32.5102 53.9H32.1602C31.4935 56.2333 29.8602 57.4 27.2602 57.4C25.8268 57.4 24.7435 57.1167 24.0102 56.55C23.3102 55.95 22.8268 55.0333 22.5602 53.8C22.3268 52.5333 22.2102 50.75 22.2102 48.45V31.5H27.8602V45.75C27.8602 47.8833 27.9102 49.3833 28.0102 50.25C28.1102 51.1167 28.2935 51.6833 28.5602 51.95C28.8602 52.1833 29.3768 52.3 30.1102 52.3C30.8768 52.3 31.4102 52.0833 31.7102 51.65C32.0435 51.2167 32.2435 50.5167 32.3102 49.55C32.3768 48.55 32.4102 46.8 32.4102 44.3V31.5H38.0602V57H32.7102L32.5102 53.9Z" fill="black"/>
<path d="M47.7902 57.4C46.7569 57.4 45.6236 57.3167 44.3902 57.15C43.1902 57.0167 42.2069 56.8333 41.4402 56.6V52.2C43.1069 52.4667 44.6902 52.6 46.1902 52.6C47.3902 52.6 48.2236 52.4 48.6902 52C49.1902 51.5667 49.4402 50.8 49.4402 49.7C49.4402 48.8333 49.3902 48.2167 49.2902 47.85C49.2236 47.45 49.0736 47.1833 48.8402 47.05C48.6069 46.8833 48.2069 46.75 47.6402 46.65L44.0902 45.95C42.9569 45.75 42.1402 45.1167 41.6402 44.05C41.1736 42.9833 40.9402 41.2333 40.9402 38.8C40.9402 36.0667 41.5569 34.1 42.7902 32.9C44.0236 31.7 45.8569 31.1 48.2902 31.1C49.2902 31.1 50.3069 31.1833 51.3402 31.35C52.4069 31.4833 53.2569 31.6667 53.8902 31.9V36.35C52.3236 36.05 50.8236 35.9 49.3902 35.9C48.3569 35.9 47.6236 36.0833 47.1902 36.45C46.7902 36.8167 46.5902 37.5333 46.5902 38.6C46.5902 39.4333 46.6236 40.0333 46.6902 40.4C46.7569 40.7333 46.8902 40.9667 47.0902 41.1C47.2902 41.2333 47.6236 41.35 48.0902 41.45L51.1402 42.05C51.9402 42.1833 52.6069 42.45 53.1402 42.85C53.6736 43.2167 54.1069 43.9 54.4402 44.9C54.8069 45.9 54.9902 47.3333 54.9902 49.2C54.9902 52.2333 54.4069 54.3667 53.2402 55.6C52.0736 56.8 50.2569 57.4 47.7902 57.4ZM68.0094 42.75C68.0094 40.5833 67.9594 39.0833 67.8594 38.25C67.7927 37.3833 67.6094 36.8333 67.3094 36.6C67.0427 36.3333 66.5427 36.2 65.8094 36.2C65.0094 36.2 64.4427 36.4167 64.1094 36.85C63.8094 37.2833 63.626 38 63.5594 39C63.4927 39.9667 63.4594 41.7 63.4594 44.2V57H57.8094V19.85H63.4594V34.4H63.8594C64.4927 32.2 66.0927 31.1 68.6594 31.1C70.0927 31.1 71.1594 31.4 71.8594 32C72.5594 32.5667 73.026 33.4833 73.2594 34.75C73.526 35.9833 73.6594 37.75 73.6594 40.05V57H68.0094V42.75ZM84.9395 57.4C82.4728 57.4 80.6728 57.05 79.5395 56.35C78.4395 55.6167 77.7228 54.3833 77.3895 52.65C77.0561 50.8833 76.8895 48.0833 76.8895 44.25C76.8895 40.45 77.0561 37.6833 77.3895 35.95C77.7228 34.1833 78.4395 32.9333 79.5395 32.2C80.6728 31.4667 82.4728 31.1 84.9395 31.1C87.4395 31.1 89.2395 31.4667 90.3395 32.2C91.4728 32.9333 92.2061 34.1667 92.5395 35.9C92.8728 37.6333 93.0395 40.4167 93.0395 44.25C93.0395 48.0833 92.8728 50.8833 92.5395 52.65C92.2061 54.3833 91.4728 55.6167 90.3395 56.35C89.2395 57.05 87.4395 57.4 84.9395 57.4ZM84.9395 52.6C85.7728 52.6 86.3395 52.4333 86.6395 52.1C86.9728 51.7667 87.1728 51.0833 87.2395 50.05C87.3395 48.9833 87.3895 47.05 87.3895 44.25C87.3895 41.45 87.3395 39.5333 87.2395 38.5C87.1728 37.4333 86.9728 36.7333 86.6395 36.4C86.3395 36.0667 85.7728 35.9 84.9395 35.9C84.1395 35.9 83.5728 36.0667 83.2395 36.4C82.9395 36.7333 82.7395 37.4333 82.6395 38.5C82.5728 39.5333 82.5395 41.45 82.5395 44.25C82.5395 47.05 82.5728 48.9833 82.6395 50.05C82.7395 51.0833 82.9395 51.7667 83.2395 52.1C83.5728 52.4333 84.1395 52.6 84.9395 52.6ZM96.4324 31.5H101.782L101.982 34.55H102.382C102.649 33.2833 103.182 32.4 103.982 31.9C104.782 31.3667 105.716 31.1 106.782 31.1C108.316 31.1 109.482 31.4667 110.282 32.2C111.116 32.9333 111.699 34.2333 112.032 36.1C112.366 37.9333 112.532 40.65 112.532 44.25C112.532 47.75 112.382 50.4333 112.082 52.3C111.782 54.1333 111.232 55.45 110.432 56.25C109.632 57.0167 108.449 57.4 106.882 57.4C104.482 57.4 103.016 56.3333 102.482 54.2H102.082V66.8H96.4324V31.5ZM104.482 52.3C105.282 52.3 105.832 52.15 106.132 51.85C106.432 51.55 106.632 50.8833 106.732 49.85C106.832 48.8167 106.882 46.95 106.882 44.25C106.882 41.55 106.832 39.6833 106.732 38.65C106.632 37.6167 106.432 36.95 106.132 36.65C105.832 36.35 105.282 36.2 104.482 36.2C103.849 36.2 103.349 36.35 102.982 36.65C102.649 36.9167 102.416 37.45 102.282 38.25C102.182 38.7833 102.116 39.5833 102.082 40.65C102.082 41.6833 102.082 42.8833 102.082 44.25C102.082 47.2833 102.149 49.1833 102.282 49.95C102.449 50.8833 102.699 51.5167 103.032 51.85C103.366 52.15 103.849 52.3 104.482 52.3Z" fill="#FFC700"/>
<path d="M68.549 26.935C68.1677 27.0477 67.7647 27.104 67.34 27.104C66.794 27.104 66.3867 26.9913 66.118 26.766C65.8493 26.5407 65.6717 26.194 65.585 25.726C65.507 25.258 65.468 24.582 65.468 23.698C65.468 22.788 65.5157 22.0947 65.611 21.618C65.715 21.1327 65.897 20.786 66.157 20.578C66.4257 20.37 66.8157 20.266 67.327 20.266C67.7517 20.266 68.146 20.3137 68.51 20.409V21.267C68.146 21.1977 67.8383 21.163 67.587 21.163C67.2663 21.163 67.0323 21.2237 66.885 21.345C66.7377 21.4663 66.638 21.696 66.586 22.034C66.534 22.372 66.508 22.918 66.508 23.672C66.508 24.452 66.534 25.0153 66.586 25.362C66.638 25.7 66.7377 25.9253 66.885 26.038C67.0323 26.1507 67.275 26.207 67.613 26.207C67.925 26.207 68.237 26.168 68.549 26.09V26.935ZM69.4834 27V17.341H70.5234V27H69.4834ZM73.6015 27.104C72.9862 27.104 72.5399 27.013 72.2625 26.831C71.9939 26.649 71.8162 26.3327 71.7295 25.882C71.6515 25.4313 71.6125 24.7033 71.6125 23.698C71.6125 22.684 71.6515 21.9517 71.7295 21.501C71.8162 21.0503 71.9939 20.734 72.2625 20.552C72.5399 20.3613 72.9862 20.266 73.6015 20.266C74.2255 20.266 74.6719 20.3613 74.9405 20.552C75.2179 20.734 75.3955 21.0503 75.4735 21.501C75.5602 21.9517 75.6035 22.684 75.6035 23.698C75.6035 24.7033 75.5602 25.4313 75.4735 25.882C75.3955 26.3327 75.2179 26.649 74.9405 26.831C74.6719 27.013 74.2255 27.104 73.6015 27.104ZM73.6015 26.207C73.9222 26.207 74.1432 26.1507 74.2645 26.038C74.3945 25.9253 74.4769 25.7087 74.5115 25.388C74.5462 25.0673 74.5635 24.504 74.5635 23.698C74.5635 22.8833 74.5462 22.3157 74.5115 21.995C74.4769 21.6657 74.3945 21.4447 74.2645 21.332C74.1345 21.2193 73.9135 21.163 73.6015 21.163C73.2895 21.163 73.0685 21.2193 72.9385 21.332C72.8172 21.4447 72.7392 21.6657 72.7045 21.995C72.6699 22.3157 72.6525 22.8833 72.6525 23.698C72.6525 24.504 72.6699 25.0673 72.7045 25.388C72.7392 25.7087 72.8172 25.9253 72.9385 26.038C73.0685 26.1507 73.2895 26.207 73.6015 26.207ZM76.9558 27V21.267H76.2148V20.37H76.9558V18.446H77.9958V20.37H78.9188V21.267H77.9958V27H76.9558ZM82.5749 23.126C82.5749 22.528 82.5532 22.1033 82.5099 21.852C82.4752 21.592 82.3972 21.423 82.2759 21.345C82.1632 21.2583 81.9769 21.215 81.7169 21.215C81.4222 21.215 81.2099 21.2973 81.0799 21.462C80.9499 21.6267 80.8675 21.865 80.8329 22.177C80.8069 22.4803 80.7939 22.9657 80.7939 23.633V27H79.7539V17.341H80.7939V21.137H80.8719C81.0539 20.5563 81.4959 20.266 82.1979 20.266C82.6052 20.266 82.9085 20.3483 83.1079 20.513C83.3072 20.669 83.4415 20.916 83.5109 21.254C83.5802 21.5833 83.6149 22.0643 83.6149 22.697V27H82.5749V23.126ZM88.5113 24.01H85.7033C85.7033 24.6773 85.725 25.1583 85.7683 25.453C85.8203 25.739 85.9286 25.9383 86.0933 26.051C86.2666 26.155 86.5483 26.207 86.9383 26.207C87.3456 26.207 87.8266 26.1637 88.3813 26.077V26.935C88.182 26.9783 87.9263 27.0173 87.6143 27.052C87.3023 27.0867 87.0033 27.104 86.7173 27.104C86.0933 27.104 85.6383 27 85.3523 26.792C85.0663 26.5753 84.88 26.2417 84.7933 25.791C84.7066 25.3317 84.6633 24.634 84.6633 23.698C84.6633 22.7533 84.698 22.0557 84.7673 21.605C84.8453 21.1543 85.023 20.8207 85.3003 20.604C85.5863 20.3787 86.0456 20.266 86.6783 20.266C87.259 20.266 87.675 20.37 87.9263 20.578C88.1863 20.786 88.3466 21.111 88.4073 21.553C88.4766 21.995 88.5113 22.7057 88.5113 23.685V24.01ZM86.6523 21.163C86.3576 21.163 86.1453 21.2107 86.0153 21.306C85.894 21.3927 85.8116 21.5747 85.7683 21.852C85.725 22.1293 85.7033 22.593 85.7033 23.243H87.5363V23.087C87.5363 22.4977 87.5103 22.073 87.4583 21.813C87.415 21.5443 87.3326 21.371 87.2113 21.293C87.0986 21.2063 86.9123 21.163 86.6523 21.163ZM90.9964 27.104C90.7278 27.104 90.4461 27.0867 90.1514 27.052C89.8568 27.0173 89.6228 26.974 89.4494 26.922V26.077C89.5968 26.1117 89.8004 26.142 90.0604 26.168C90.3204 26.194 90.5674 26.207 90.8014 26.207C91.1741 26.207 91.4298 26.1247 91.5684 25.96C91.7071 25.7953 91.7764 25.5353 91.7764 25.18C91.7764 24.8767 91.7591 24.66 91.7244 24.53C91.6984 24.3913 91.6508 24.3003 91.5814 24.257C91.5121 24.2137 91.3951 24.179 91.2304 24.153L90.1904 23.971C89.8698 23.9103 89.6444 23.75 89.5144 23.49C89.3844 23.23 89.3194 22.8053 89.3194 22.216C89.3194 21.488 89.4711 20.981 89.7744 20.695C90.0778 20.409 90.5371 20.266 91.1524 20.266C91.3951 20.266 91.6464 20.2833 91.9064 20.318C92.1664 20.3527 92.3788 20.396 92.5434 20.448V21.306C92.3961 21.2627 92.2011 21.228 91.9584 21.202C91.7244 21.176 91.4948 21.163 91.2694 21.163C90.9488 21.163 90.7148 21.2323 90.5674 21.371C90.4288 21.5097 90.3594 21.7697 90.3594 22.151C90.3594 22.4197 90.3724 22.619 90.3984 22.749C90.4244 22.8703 90.4678 22.957 90.5284 23.009C90.5978 23.0523 90.7061 23.087 90.8534 23.113L91.8154 23.282C92.0408 23.3167 92.2228 23.386 92.3614 23.49C92.5001 23.594 92.6041 23.7717 92.6734 24.023C92.7514 24.2743 92.7904 24.634 92.7904 25.102C92.7904 25.83 92.6474 26.3457 92.3614 26.649C92.0754 26.9523 91.6204 27.104 90.9964 27.104ZM97.1918 27.104C96.9231 27.104 96.6414 27.0867 96.3468 27.052C96.0521 27.0173 95.8181 26.974 95.6448 26.922V26.077C95.7921 26.1117 95.9958 26.142 96.2558 26.168C96.5158 26.194 96.7628 26.207 96.9968 26.207C97.3694 26.207 97.6251 26.1247 97.7638 25.96C97.9024 25.7953 97.9718 25.5353 97.9718 25.18C97.9718 24.8767 97.9544 24.66 97.9198 24.53C97.8938 24.3913 97.8461 24.3003 97.7768 24.257C97.7074 24.2137 97.5904 24.179 97.4258 24.153L96.3858 23.971C96.0651 23.9103 95.8398 23.75 95.7098 23.49C95.5798 23.23 95.5148 22.8053 95.5148 22.216C95.5148 21.488 95.6664 20.981 95.9698 20.695C96.2731 20.409 96.7324 20.266 97.3478 20.266C97.5904 20.266 97.8418 20.2833 98.1018 20.318C98.3618 20.3527 98.5741 20.396 98.7388 20.448V21.306C98.5914 21.2627 98.3964 21.228 98.1538 21.202C97.9198 21.176 97.6901 21.163 97.4648 21.163C97.1441 21.163 96.9101 21.2323 96.7628 21.371C96.6241 21.5097 96.5548 21.7697 96.5548 22.151C96.5548 22.4197 96.5678 22.619 96.5938 22.749C96.6198 22.8703 96.6631 22.957 96.7238 23.009C96.7931 23.0523 96.9014 23.087 97.0488 23.113L98.0108 23.282C98.2361 23.3167 98.4181 23.386 98.5568 23.49C98.6954 23.594 98.7994 23.7717 98.8688 24.023C98.9468 24.2743 98.9858 24.634 98.9858 25.102C98.9858 25.83 98.8428 26.3457 98.5568 26.649C98.2708 26.9523 97.8158 27.104 97.1918 27.104ZM100.201 27V21.267H99.46V20.37H100.201V18.446H101.241V20.37H102.164V21.267H101.241V27H100.201ZM104.769 27.104C104.153 27.104 103.707 27.013 103.43 26.831C103.161 26.649 102.983 26.3327 102.897 25.882C102.819 25.4313 102.78 24.7033 102.78 23.698C102.78 22.684 102.819 21.9517 102.897 21.501C102.983 21.0503 103.161 20.734 103.43 20.552C103.707 20.3613 104.153 20.266 104.769 20.266C105.393 20.266 105.839 20.3613 106.108 20.552C106.385 20.734 106.563 21.0503 106.641 21.501C106.727 21.9517 106.771 22.684 106.771 23.698C106.771 24.7033 106.727 25.4313 106.641 25.882C106.563 26.3327 106.385 26.649 106.108 26.831C105.839 27.013 105.393 27.104 104.769 27.104ZM104.769 26.207C105.089 26.207 105.31 26.1507 105.432 26.038C105.562 25.9253 105.644 25.7087 105.679 25.388C105.713 25.0673 105.731 24.504 105.731 23.698C105.731 22.8833 105.713 22.3157 105.679 21.995C105.644 21.6657 105.562 21.4447 105.432 21.332C105.302 21.2193 105.081 21.163 104.769 21.163C104.457 21.163 104.236 21.2193 104.106 21.332C103.984 21.4447 103.906 21.6657 103.872 21.995C103.837 22.3157 103.82 22.8833 103.82 23.698C103.82 24.504 103.837 25.0673 103.872 25.388C103.906 25.7087 103.984 25.9253 104.106 26.038C104.236 26.1507 104.457 26.207 104.769 26.207ZM107.861 20.37H108.81L108.862 21.553H108.94C109.044 21.059 109.209 20.721 109.434 20.539C109.668 20.357 109.98 20.266 110.37 20.266V21.371C109.833 21.371 109.452 21.553 109.226 21.917C109.01 22.2723 108.901 22.8703 108.901 23.711V27H107.861V20.37ZM114.778 24.01H111.97C111.97 24.6773 111.992 25.1583 112.035 25.453C112.087 25.739 112.195 25.9383 112.36 26.051C112.533 26.155 112.815 26.207 113.205 26.207C113.612 26.207 114.093 26.1637 114.648 26.077V26.935C114.449 26.9783 114.193 27.0173 113.881 27.052C113.569 27.0867 113.27 27.104 112.984 27.104C112.36 27.104 111.905 27 111.619 26.792C111.333 26.5753 111.147 26.2417 111.06 25.791C110.973 25.3317 110.93 24.634 110.93 23.698C110.93 22.7533 110.965 22.0557 111.034 21.605C111.112 21.1543 111.29 20.8207 111.567 20.604C111.853 20.3787 112.312 20.266 112.945 20.266C113.526 20.266 113.942 20.37 114.193 20.578C114.453 20.786 114.613 21.111 114.674 21.553C114.743 21.995 114.778 22.7057 114.778 23.685V24.01ZM112.919 21.163C112.624 21.163 112.412 21.2107 112.282 21.306C112.161 21.3927 112.078 21.5747 112.035 21.852C111.992 22.1293 111.97 22.593 111.97 23.243H113.803V23.087C113.803 22.4977 113.777 22.073 113.725 21.813C113.682 21.5443 113.599 21.371 113.478 21.293C113.365 21.2063 113.179 21.163 112.919 21.163Z" fill="black"/>
</svg>
